<?xml version="1.0" standalone="no"?>
<!DOCTYPE svg PUBLIC "-//W3C//DTD SVG 20010904//EN"
 "http://www.w3.org/TR/2001/REC-SVG-20010904/DTD/svg10.dtd">
<svg version="1.0" xmlns="http://www.w3.org/2000/svg"
 width="454.000000pt" height="454.000000pt" viewBox="0 0 454.000000 454.000000"
 preserveAspectRatio="xMidYMid meet">
<metadata>
Created by potrace 1.11, written by Peter Selinger 2001-2013
</metadata>
<g transform="translate(0.000000,454.000000) scale(0.100000,-0.100000)"
fill="#000000" stroke="none">
<path d="M0 2270 l0 -2270 2270 0 2270 0 0 1790 0 1789 -32 5 c-18 3 -54 8
-80 11 -50 6 -68 24 -68 65 0 26 -29 39 -41 18 -24 -43 -131 -32 -180 18 -20
19 -44 34 -59 34 -21 0 -31 12 -61 73 -28 55 -41 71 -55 69 -52 -8 -64 -13
-64 -31 0 -11 -5 -21 -10 -23 -20 -6 17 -73 74 -132 31 -32 53 -62 50 -67 -3
-6 -12 -5 -22 3 -14 12 -14 10 -2 -11 l13 -25 19 28 c29 39 49 19 43 -45 -3
-41 -1 -49 16 -54 10 -4 24 -3 30 1 6 3 28 6 48 6 32 -1 47 8 103 58 l65 59
-1 -43 c-1 -57 24 -92 76 -107 26 -6 57 -26 79 -49 39 -40 39 -50 -3 -96 -11
-12 -18 -30 -16 -40 2 -15 -2 -18 -23 -16 -28 2 -39 -16 -39 -65 0 -15 -6 -23
-18 -23 -10 0 -29 -13 -44 -30 -14 -16 -35 -30 -45 -30 -12 0 -25 -11 -32 -26
-7 -16 -17 -24 -26 -20 -8 3 -38 -3 -67 -13 -37 -12 -57 -26 -68 -47 -13 -22
-33 -34 -93 -55 -42 -14 -85 -33 -95 -42 -10 -9 -26 -17 -34 -17 -9 0 -29 -7
-44 -15 -16 -8 -43 -15 -60 -15 -16 0 -40 -9 -52 -20 -14 -13 -35 -20 -61 -20
-42 0 -51 7 -56 43 -2 12 -9 38 -15 57 -7 19 -13 56 -15 82 -1 37 -10 58 -41
100 -22 29 -48 70 -57 91 -9 20 -28 42 -42 49 -35 16 -54 49 -59 105 -7 63
-28 105 -71 137 -19 15 -35 33 -35 40 0 19 -86 170 -105 186 -13 11 -20 11
-39 0 -13 -7 -29 -9 -35 -6 -13 9 -14 2 -3 -22 5 -9 30 -60 55 -113 26 -53 47
-104 47 -115 0 -10 18 -36 39 -59 37 -37 40 -46 51 -125 10 -78 14 -88 46
-117 34 -31 64 -87 64 -120 0 -10 5 -25 10 -33 9 -13 12 -13 21 3 10 18 11 18
24 0 12 -15 11 -19 -3 -24 -14 -6 -12 -9 9 -17 33 -13 169 -147 169 -166 0 -8
-4 -18 -10 -21 -9 -5 51 -75 65 -75 3 0 20 7 37 16 16 9 40 13 52 10 12 -3 31
1 43 9 11 8 29 14 39 13 47 -1 119 13 141 27 41 27 57 16 58 -38 0 -26 -3 -47
-7 -47 -5 0 -8 -12 -8 -26 0 -14 -13 -45 -28 -68 -15 -22 -45 -75 -66 -117
-49 -101 -143 -211 -211 -250 -49 -28 -205 -178 -205 -198 0 -4 -18 -21 -40
-36 -22 -15 -40 -33 -40 -40 0 -7 -14 -38 -31 -70 -24 -46 -28 -60 -17 -66 9
-6 12 -29 10 -81 -3 -81 13 -145 41 -168 15 -12 19 -33 22 -110 1 -52 6 -109
10 -126 13 -56 -60 -150 -133 -172 -24 -7 -66 -39 -115 -85 -74 -70 -87 -92
-69 -112 29 -34 41 -185 18 -217 -7 -9 -39 -28 -71 -43 -65 -28 -79 -43 -64
-62 8 -8 6 -32 -4 -79 -12 -52 -23 -73 -50 -98 -19 -17 -46 -54 -60 -81 -44
-87 -227 -249 -258 -229 -6 4 -15 0 -20 -7 -6 -10 -33 -14 -96 -15 -48 0 -101
-6 -116 -12 -16 -7 -37 -12 -48 -12 -11 0 -30 -7 -42 -15 -21 -13 -26 -12 -60
12 -43 31 -86 108 -68 126 17 17 14 38 -19 102 -16 33 -39 80 -50 105 -11 25
-35 63 -53 86 -26 32 -36 57 -46 115 -7 41 -17 84 -22 97 -5 13 -9 46 -9 75 0
31 -6 62 -15 75 -9 12 -34 59 -57 104 -22 46 -49 94 -59 107 -15 19 -19 38
-18 85 2 34 6 66 10 71 3 6 12 34 18 64 12 58 42 116 65 124 26 10 27 63 0
123 -17 40 -22 60 -15 67 17 17 13 33 -19 99 -16 33 -30 67 -30 77 0 24 -31
69 -94 135 -31 33 -65 77 -76 98 -21 41 -26 63 -11 53 14 -8 20 6 22 56 1 24
8 53 16 64 16 24 17 87 1 103 -10 10 -16 8 -30 -10 -13 -18 -20 -20 -29 -11
-10 10 -9 16 4 31 9 10 17 22 17 27 0 4 -35 5 -78 1 -87 -7 -93 -4 -126 62 -9
18 -28 37 -41 42 -30 12 -168 -4 -173 -19 -2 -6 -13 -11 -24 -11 -11 0 -34 -6
-51 -14 -85 -39 -103 -44 -123 -33 -34 20 -173 13 -230 -12 l-52 -22 -48 24
c-27 14 -58 35 -68 46 -11 12 -37 32 -58 43 -21 12 -38 25 -38 29 0 4 -9 11
-21 14 -22 7 -83 70 -85 89 -1 6 -2 16 -3 23 -2 19 -132 143 -149 143 -24 0
-46 54 -39 95 4 25 0 41 -14 59 -20 25 -20 25 0 45 11 11 23 33 26 48 3 16 11
44 17 64 6 20 7 54 4 75 -4 22 -7 56 -7 77 0 26 -5 41 -19 49 -25 16 -26 67
-2 99 10 13 26 43 36 66 10 23 29 52 42 64 13 12 24 31 24 41 0 26 26 74 49
90 10 7 26 30 34 50 13 31 23 39 59 48 29 8 58 27 91 61 47 47 48 50 42 94 -6
33 -3 51 9 70 9 13 16 30 16 38 0 19 58 72 102 92 27 12 41 28 57 65 12 27 21
54 21 60 0 6 10 14 22 19 18 6 27 3 41 -16 17 -21 27 -24 68 -22 27 2 52 0 55
-4 15 -15 54 -6 82 18 17 14 39 25 51 25 12 0 21 4 21 8 0 14 69 42 103 42 18
0 38 5 44 11 9 9 55 12 138 8 18 -1 93 7 105 12 3 1 10 0 15 -1 24 -6 79 0 89
10 14 14 52 12 65 -4 7 -8 21 -12 31 -9 25 7 26 -14 3 -46 -15 -22 -15 -25 0
-36 25 -18 21 -62 -8 -89 -30 -28 -32 -46 -6 -46 10 0 24 -7 32 -16 20 -24 69
-46 93 -41 27 7 128 -26 137 -44 4 -8 10 -22 13 -32 3 -9 11 -19 18 -21 7 -2
35 -9 62 -15 27 -6 60 -20 74 -31 30 -24 46 -25 66 -4 12 11 14 26 10 53 -5
33 -2 41 25 63 17 15 44 29 61 33 36 8 100 -11 100 -30 0 -10 17 -17 49 -21
28 -4 52 -12 55 -20 3 -8 19 -14 38 -14 17 0 65 -9 106 -21 69 -19 77 -20 111
-5 60 25 79 28 103 15 27 -15 79 -20 125 -12 27 4 35 12 49 52 48 128 71 180
79 173 4 -4 5 17 1 46 -4 34 -2 60 5 75 7 12 15 36 19 52 5 25 2 32 -19 43
-21 11 -27 10 -46 -8 -12 -11 -25 -20 -31 -20 -9 0 -54 -64 -54 -78 0 -4 -16
-9 -36 -10 -42 -3 -89 34 -78 62 3 9 1 16 -5 16 -6 0 -11 7 -11 16 0 11 -5 14
-16 10 -11 -4 -18 1 -22 16 l-6 23 -6 -24 c-3 -14 -12 -27 -19 -29 -10 -3 -12
1 -7 14 5 14 4 16 -4 8 -12 -12 -2 -47 11 -38 14 8 -2 -49 -15 -58 -25 -17
-36 -8 -29 24 4 22 3 29 -5 24 -7 -4 -12 -2 -12 3 0 6 -5 10 -11 9 -6 -2 -14
3 -17 11 -3 8 0 11 7 7 15 -10 13 5 -3 27 -7 9 -20 15 -28 12 -11 -5 -14 1
-10 25 4 27 8 30 39 30 19 0 32 -4 29 -9 -3 -5 5 -11 18 -13 19 -4 22 -1 18
14 -2 10 -9 18 -16 18 -6 0 -4 5 4 10 8 5 11 10 7 10 -14 0 18 28 39 33 10 3
-392 5 -895 6 -682 0 -911 -3 -903 -11 6 -6 22 -12 34 -13 13 -1 24 -8 24 -16
1 -8 2 -20 3 -26 0 -7 6 -13 12 -13 7 0 10 12 7 30 -3 20 0 30 8 30 9 0 13
-12 12 -35 -1 -19 -6 -35 -12 -35 -7 0 -6 -4 2 -8 18 -12 -13 -72 -37 -72 -10
0 -23 -11 -31 -24 -15 -29 -37 -36 -90 -29 -25 4 -46 1 -56 -8 -9 -7 -18 -9
-22 -3 -14 19 -43 15 -49 -6 -4 -16 -8 -18 -19 -9 -19 16 -18 39 3 39 36 0 0
14 -43 17 -64 3 -98 27 -89 61 4 15 10 29 14 32 5 3 7 14 5 24 -1 11 6 26 16
33 11 8 17 20 14 28 -5 13 -64 15 -415 15 l-409 0 0 -2270z m2470 2250 c0 -5
-5 -10 -11 -10 -5 0 -7 5 -4 10 3 6 8 10 11 10 2 0 4 -4 4 -10z m310 -16 c0
-8 -4 -12 -10 -9 -5 3 -10 13 -10 21 0 8 5 12 10 9 6 -3 10 -13 10 -21z
m-1370 0 c0 -14 -3 -14 -15 -4 -8 7 -15 14 -15 16 0 2 7 4 15 4 8 0 15 -7 15
-16z m-655 -63 c-6 -5 -25 10 -25 20 0 5 6 4 14 -3 8 -7 12 -15 11 -17z m1973
3 c0 -17 -3 -22 -8 -13 -5 6 -6 18 -3 26 8 19 11 16 11 -13z m36 11 c-6 -16
-24 -21 -24 -7 0 11 11 22 21 22 5 0 6 -7 3 -15z m-214 -61 c0 -14 -3 -14 -15
-4 -8 7 -15 14 -15 16 0 2 7 4 15 4 8 0 15 -7 15 -16z m-602 -13 c3 -8 -1 -12
-9 -9 -7 2 -15 10 -17 17 -3 8 1 12 9 9 7 -2 15 -10 17 -17z m547 -1 c3 -5 1
-10 -4 -10 -6 0 -11 5 -11 10 0 6 2 10 4 10 3 0 8 -4 11 -10z m-455 -10 c0 -5
-2 -10 -4 -10 -3 0 -8 5 -11 10 -3 6 -1 10 4 10 6 0 11 -4 11 -10z m-31 -11
c28 -10 44 -39 21 -39 -5 0 -10 5 -10 10 0 6 -6 10 -13 10 -16 0 -56 29 -41
30 6 0 25 -5 43 -11z m1146 -29 c-3 -5 -11 -10 -16 -10 -6 0 -7 5 -4 10 3 6
11 10 16 10 6 0 7 -4 4 -10z m-590 -110 c3 -5 1 -10 -4 -10 -6 0 -11 5 -11 10
0 6 2 10 4 10 3 0 8 -4 11 -10z m73 -15 c1 -1 -6 -5 -17 -8 -11 -3 -26 2 -32
10 -11 12 -8 13 17 7 16 -4 30 -8 32 -9z m452 -4 c0 -19 -20 -22 -36 -7 -14
15 -13 16 10 16 14 0 26 -4 26 -9z m-50 -21 c8 -5 11 -10 5 -10 -5 0 -17 5
-25 10 -8 5 -10 10 -5 10 6 0 17 -5 25 -10z m-2568 -412 c-7 -7 -12 -8 -12 -2
0 14 12 26 19 19 2 -3 -1 -11 -7 -17z m3073 -688 c3 -5 -1 -10 -9 -10 -9 0
-16 5 -16 10 0 6 4 10 9 10 6 0 13 -4 16 -10z m675 -240 c3 -1 -4 -5 -15 -9
-22 -9 -45 -4 -45 10 0 8 34 7 60 -1z m-2610 -675 c0 -8 -4 -15 -10 -15 -5 0
-10 7 -10 15 0 8 5 15 10 15 6 0 10 -7 10 -15z m2670 -271 c0 -8 -4 -12 -10
-9 -5 3 -10 10 -10 16 0 5 5 9 10 9 6 0 10 -7 10 -16z m-850 -8 c0 -2 -3 -11
-6 -20 -9 -23 -24 -20 -24 4 0 11 7 20 15 20 8 0 15 -2 15 -4z m190 -377 c0
-21 -16 -26 -23 -6 -6 17 3 38 14 31 5 -3 9 -14 9 -25z m340 -44 c12 -19 23
-51 26 -72 3 -21 10 -50 16 -65 11 -29 -5 -73 -23 -63 -5 4 -9 -5 -9 -19 0
-14 -4 -28 -10 -31 -5 -3 -10 -20 -10 -36 0 -26 -79 -300 -115 -399 -7 -19
-23 -40 -36 -47 -75 -36 -77 -36 -109 -23 -42 17 -70 56 -70 95 0 18 -6 48
-14 66 -13 31 -6 83 13 99 23 20 42 75 36 103 -22 98 -23 112 -10 137 7 14 16
32 18 41 3 9 27 22 54 29 70 20 121 58 129 97 7 34 27 58 42 49 5 -3 14 13 21
34 6 22 16 40 21 40 4 0 18 -16 30 -35z m443 -428 c8 -21 -9 -41 -27 -34 -14
5 -15 11 -6 27 12 23 26 26 33 7z m-113 -52 c10 -12 10 -19 2 -27 -15 -15 -48
14 -38 31 10 15 21 14 36 -4z"/>
<path d="M3925 1442 c-3 -17 -13 -33 -21 -36 -7 -3 -24 -26 -36 -50 -13 -29
-29 -46 -42 -48 -12 -2 -20 -9 -19 -15 2 -7 -4 -10 -12 -7 -8 4 -15 2 -15 -3
0 -5 -22 -15 -50 -22 -27 -7 -50 -17 -50 -21 0 -5 -3 -16 -7 -26 -5 -13 -3
-15 8 -9 8 5 11 5 6 -1 -5 -5 -14 -9 -20 -9 -14 0 -13 -8 3 -91 12 -60 11 -62
-19 -120 -33 -64 -36 -81 -21 -128 5 -17 12 -48 15 -69 5 -31 12 -40 41 -52
32 -13 39 -13 65 0 16 9 31 15 34 15 3 0 8 0 13 0 4 0 15 28 26 63 45 150 60
196 82 261 13 38 24 84 24 102 0 18 5 36 11 40 7 4 9 22 6 45 -6 44 6 57 30
37 15 -11 16 -11 9 7 -4 11 -12 45 -18 75 -5 30 -16 63 -23 73 -12 17 -13 17
-20 -11z m-39 -114 c4 -7 3 -8 -4 -4 -7 4 -12 0 -12 -10 0 -10 -3 -15 -6 -11
-7 6 2 37 10 37 3 0 8 -5 12 -12z m-78 -69 c-7 -5 -22 -9 -32 -9 -19 0 -19 0
-1 14 11 8 25 11 33 8 11 -4 11 -6 0 -13z m93 -7 c-6 -11 -8 -27 -5 -36 3 -9
-5 -24 -19 -36 -14 -12 -23 -28 -21 -35 3 -7 -2 -19 -11 -28 -9 -10 -11 -18
-5 -22 13 -8 13 -45 0 -45 -5 0 -9 6 -7 13 1 6 -6 11 -15 9 -22 -4 -23 11 -3
28 9 7 15 23 13 34 -2 16 -11 22 -40 24 -20 2 -47 -2 -60 -8 l-23 -11 24 20
c13 12 29 21 36 21 13 0 30 28 26 43 -1 5 3 6 7 3 5 -3 17 3 27 14 13 15 22
17 36 10 24 -14 26 -13 32 12 4 12 9 19 12 16 4 -3 2 -15 -4 -26z m-171 -52
c0 -13 -5 -18 -15 -14 -12 5 -13 10 -4 20 15 19 19 18 19 -6z m-36 -51 c-6
-11 -24 -2 -24 11 0 5 7 7 15 4 8 -4 12 -10 9 -15z m102 -76 c6 -49 -29 -40
-38 10 -5 24 -2 28 15 25 14 -2 21 -12 23 -35z m-48 -55 c-3 -27 1 -34 19 -36
27 -4 50 -60 28 -68 -7 -3 -11 -12 -8 -20 3 -8 0 -14 -6 -14 -17 0 -13 -61 5
-81 9 -10 13 -23 9 -28 -10 -17 -25 -13 -19 4 7 17 -4 19 -25 6 -7 -5 -11 -13
-7 -19 3 -6 2 -13 -3 -16 -5 -4 -12 -2 -16 3 -3 6 -11 8 -18 5 -7 -2 -18 5
-25 17 -12 20 -11 24 12 43 19 16 23 25 16 36 -8 13 -10 12 -10 -2 0 -20 -5
-21 -35 -8 -11 5 -14 9 -7 9 6 1 12 8 12 16 0 8 5 14 11 13 6 -2 14 3 17 11 3
8 0 11 -7 7 -6 -4 -11 0 -11 9 0 11 5 15 14 12 17 -7 36 11 35 32 0 11 -2 12
-6 4 -6 -15 -39 -17 -48 -3 -3 6 1 10 9 10 9 0 18 11 22 25 3 14 10 25 15 25
5 0 9 9 9 20 0 11 5 20 10 20 6 0 9 -15 8 -32z m-111 -130 c-3 -8 -6 -5 -6 6
-1 11 2 17 5 13 3 -3 4 -12 1 -19z"/>
<path d="M3860 1210 c0 -5 5 -10 10 -10 6 0 10 5 10 10 0 6 -4 10 -10 10 -5 0
-10 -4 -10 -10z"/>
<path d="M885 4530 c3 -5 15 -10 26 -10 10 0 19 -4 19 -10 0 -5 5 -10 11 -10
6 0 17 -7 25 -15 22 -21 31 -19 30 8 -1 16 -7 22 -26 23 -14 1 -38 6 -53 13
-35 14 -40 14 -32 1z"/>
<path d="M3197 4522 c-10 -10 -14 -21 -11 -25 9 -9 44 16 44 30 0 18 -14 16
-33 -5z"/>
<path d="M3343 4529 c14 -8 22 -8 30 0 8 8 3 11 -18 11 -26 -1 -28 -2 -12 -11z"/>
<path d="M3398 4533 c7 -3 16 -2 19 1 4 3 -2 6 -13 5 -11 0 -14 -3 -6 -6z"/>
<path d="M3488 4533 c7 -3 16 -2 19 1 4 3 -2 6 -13 5 -11 0 -14 -3 -6 -6z"/>
<path d="M3540 4524 l-25 -15 32 5 c27 4 31 3 27 -12 -5 -13 -4 -14 4 -3 6 8
15 10 23 6 9 -6 11 -3 6 9 -4 10 -7 20 -7 22 0 9 -37 2 -60 -12z"/>
<path d="M3744 4494 c30 -32 49 -45 60 -41 9 4 16 11 16 17 0 6 -4 8 -10 5 -5
-3 -10 0 -10 8 0 8 7 18 16 21 13 5 14 9 4 21 -8 10 -31 15 -66 15 l-54 0 44
-46z"/>
<path d="M3836 4525 c7 -17 44 -21 44 -4 0 6 9 8 21 4 15 -5 19 -4 15 4 -4 6
-25 11 -46 11 -31 0 -38 -3 -34 -15z"/>
<path d="M3944 4523 c-3 -10 -9 -27 -14 -38 -8 -19 -9 -19 -9 2 -1 16 -6 20
-20 16 -25 -6 -34 -42 -15 -60 8 -8 14 -26 14 -39 0 -26 25 -83 38 -85 4 -1
19 -2 33 -3 15 0 36 -9 46 -18 11 -10 27 -18 36 -18 9 0 37 -5 61 -12 43 -11
46 -11 70 15 14 15 36 27 49 27 13 0 34 11 46 24 29 30 24 55 -5 29 -24 -22
-60 -43 -73 -43 -19 0 -32 56 -23 98 8 34 7 44 -10 61 -10 12 -18 29 -16 39 3
15 -8 17 -100 20 -91 2 -103 1 -108 -15z m226 -210 c-8 -3 -23 -10 -32 -15
-11 -5 -18 -5 -18 1 0 10 23 18 50 19 13 0 13 0 0 -5z"/>
<path d="M2890 4502 c0 -10 22 -32 32 -32 5 0 3 9 -4 20 -13 20 -28 27 -28 12z"/>
<path d="M3410 4500 c0 -5 -10 -10 -22 -10 -31 0 -17 -9 20 -14 31 -3 62 17
48 31 -4 4 -11 1 -16 -7 -7 -10 -10 -11 -10 -2 0 6 -4 12 -10 12 -5 0 -10 -4
-10 -10z"/>
<path d="M830 4489 c0 -5 5 -7 10 -4 6 3 10 8 10 11 0 2 -4 4 -10 4 -5 0 -10
-5 -10 -11z"/>
<path d="M3515 4480 c-3 -5 -1 -11 4 -11 6 -1 17 -2 24 -3 6 -1 11 -9 11 -19
-1 -9 4 -18 12 -18 34 -4 39 -3 39 6 0 6 4 16 9 23 7 11 4 12 -13 3 -17 -10
-23 -8 -33 9 -14 21 -43 27 -53 10z"/>
<path d="M900 4470 c0 -5 7 -7 15 -4 8 4 15 8 15 10 0 2 -7 4 -15 4 -8 0 -15
-4 -15 -10z"/>
<path d="M3490 4449 c0 -5 5 -7 10 -4 6 3 10 8 10 11 0 2 -4 4 -10 4 -5 0 -10
-5 -10 -11z"/>
<path d="M1098 4433 c-23 -28 -30 -43 -19 -43 12 0 46 48 39 55 -3 3 -12 -3
-20 -12z"/>
<path d="M3520 4439 c0 -5 5 -7 10 -4 6 3 10 8 10 11 0 2 -4 4 -10 4 -5 0 -10
-5 -10 -11z"/>
<path d="M992 4429 c2 -7 -12 -16 -30 -20 -19 -4 -39 -12 -45 -18 -19 -19 29
-13 70 9 21 11 49 20 62 20 33 0 24 6 -22 14 -27 5 -37 4 -35 -5z"/>
<path d="M847 4404 c-3 -4 -4 -11 -1 -15 7 -12 54 -11 54 1 0 6 -4 10 -9 10
-5 0 -16 2 -23 5 -8 3 -17 3 -21 -1z"/>
<path d="M3442 4399 c2 -6 7 -10 11 -10 4 1 14 1 23 1 8 0 12 5 9 10 -8 13
-48 13 -43 -1z"/>
<path d="M2845 4370 c3 -5 11 -10 16 -10 6 0 7 5 4 10 -3 6 -11 10 -16 10 -6
0 -7 -4 -4 -10z"/>
<path d="M1058 4338 c5 -5 16 -8 23 -6 8 3 3 7 -10 11 -17 4 -21 3 -13 -5z"/>
<path d="M1732 4324 c-14 -10 -22 -25 -21 -42 l1 -27 8 25 c4 14 9 18 9 10 1
-12 5 -11 16 4 8 10 12 23 8 29 -3 5 4 6 18 2 19 -5 21 -4 9 4 -20 14 -22 14
-48 -5z"/>
<path d="M1598 4319 c-26 -4 -51 -10 -57 -13 -5 -4 -21 -1 -35 5 -20 9 -40 8
-93 -5 -37 -9 -80 -16 -95 -16 -14 0 -40 -11 -56 -25 -17 -14 -38 -25 -47 -25
-9 0 -29 -10 -44 -23 -21 -17 -26 -28 -20 -42 4 -11 8 -36 8 -55 1 -19 8 -48
16 -63 20 -40 10 -57 -35 -57 -50 0 -102 -29 -94 -52 4 -13 -2 -21 -18 -27
-13 -5 -40 -22 -60 -39 -21 -16 -55 -33 -75 -37 -21 -4 -55 -16 -75 -28 -35
-19 -38 -24 -38 -66 l0 -46 92 -60 c142 -92 411 -284 433 -309 17 -20 40 -34
105 -66 8 -4 15 -17 14 -29 0 -15 4 -20 15 -17 9 3 36 8 61 11 34 5 59 19 100
54 30 26 100 76 155 111 55 34 106 67 112 72 19 15 -2 46 -35 54 -34 8 -52 22
-52 41 0 8 -9 28 -20 43 -16 23 -18 31 -7 42 16 16 20 150 5 186 -6 15 -12 38
-13 52 -5 65 -18 111 -33 123 -24 17 -60 71 -67 99 -4 16 1 31 17 47 17 19 22
35 20 68 -1 23 3 55 8 69 8 20 7 25 -2 21 -7 -2 -20 -1 -28 3 -8 3 -36 3 -62
-1z"/>
<path d="M1800 4295 c-6 -8 -10 -19 -8 -24 1 -6 8 1 15 14 13 28 11 31 -7 10z"/>
<path d="M912 4201 c-16 -52 -46 -87 -95 -113 -42 -21 -65 -45 -80 -82 -10
-26 2 -14 17 16 6 12 27 32 46 45 64 40 90 65 111 101 12 23 17 28 13 13 -4
-16 -3 -21 5 -17 6 4 11 2 11 -4 0 -6 4 -9 9 -6 5 3 7 15 4 26 -6 23 -1 25 30
9 12 -6 7 2 -13 19 -19 17 -38 31 -41 32 -3 0 -11 -17 -17 -39z"/>
<path d="M1711 4224 c0 -11 3 -14 6 -6 3 7 2 16 -1 19 -3 4 -6 -2 -5 -13z"/>
<path d="M1023 4193 c9 -2 25 -2 35 0 9 3 1 5 -18 5 -19 0 -27 -2 -17 -5z"/>
<path d="M1090 4186 c0 -2 9 -6 20 -9 11 -3 18 -1 14 4 -5 9 -34 13 -34 5z"/>
<path d="M2405 4040 c-16 -7 -17 -9 -3 -9 9 -1 20 4 23 9 7 11 7 11 -20 0z"/>
<path d="M2359 4013 c-13 -16 -12 -17 4 -4 9 7 17 15 17 17 0 8 -8 3 -21 -13z"/>
<path d="M2903 3947 c-36 -14 -55 -28 -26 -21 12 3 28 -4 44 -19 l24 -25 26
22 25 22 -22 17 c-26 19 -28 20 -71 4z"/>
<path d="M689 3823 c-13 -16 -12 -17 4 -4 9 7 17 15 17 17 0 8 -8 3 -21 -13z"/>
<path d="M3030 3811 c0 -6 4 -13 10 -16 6 -3 7 1 4 9 -7 18 -14 21 -14 7z"/>
<path d="M927 3552 c-38 -3 -39 -4 -33 -35 3 -18 15 -122 26 -232 11 -110 25
-208 30 -217 6 -11 6 -27 0 -43 -9 -25 -11 -25 -132 -26 -152 -2 -150 -2 -166
-13 -8 -5 -18 -4 -25 3 -16 16 -24 14 -32 -11 -11 -35 -5 -68 15 -88 11 -11
17 -28 15 -40 -4 -21 4 -24 60 -20 17 1 36 7 44 13 10 9 16 7 27 -8 8 -10 14
-25 14 -32 0 -7 4 -13 9 -13 5 0 11 -12 13 -27 3 -23 8 -28 37 -30 20 -2 38 2
43 9 6 10 11 11 28 1 26 -17 30 -16 30 6 0 11 4 22 10 26 5 3 7 12 4 20 -4 9
2 18 17 23 13 5 28 23 34 43 8 23 18 34 31 34 10 0 30 12 44 28 13 15 29 27
35 27 6 0 31 11 57 25 34 18 55 23 78 19 17 -4 41 -2 53 4 12 6 49 13 81 16
32 3 64 10 70 16 6 6 13 49 15 95 l3 84 -28 -2 c-25 -2 -29 2 -27 20 2 18 -7
27 -42 43 -25 11 -59 35 -77 53 -32 31 -246 189 -298 218 -14 8 -42 13 -63 11z"/>
<path d="M2088 3450 c-20 -12 -15 -65 13 -124 15 -31 17 -47 9 -80 -5 -22 -10
-65 -10 -95 0 -49 -4 -60 -40 -102 -21 -26 -47 -63 -56 -83 -15 -31 -16 -39
-4 -61 7 -14 18 -25 24 -25 19 0 40 -43 47 -95 4 -27 10 -60 14 -72 7 -21 4
-23 -36 -23 l-44 -1 37 -33 c20 -18 42 -45 48 -60 6 -17 14 -24 22 -20 6 4 23
9 37 11 73 9 101 16 112 29 6 8 8 14 4 14 -4 0 -2 7 5 15 7 8 27 15 45 15 34
0 105 51 105 76 0 6 14 17 31 24 21 9 27 16 20 23 -6 6 -11 19 -11 29 0 10 -7
21 -15 24 -17 7 -20 40 -5 49 5 3 7 12 3 20 -3 9 0 21 6 29 6 7 9 15 6 18 -3
3 1 11 10 18 8 7 15 21 15 32 0 18 37 40 53 31 4 -2 7 42 7 99 0 103 0 104
-27 120 -63 36 -393 208 -400 208 -5 0 -16 -5 -25 -10z"/>
<path d="M3150 3409 c0 -5 5 -7 10 -4 6 3 10 8 10 11 0 2 -4 4 -10 4 -5 0 -10
-5 -10 -11z"/>
<path d="M3395 2980 c-16 -7 -17 -9 -3 -9 9 -1 20 4 23 9 7 11 7 11 -20 0z"/>
<path d="M550 2955 c14 -36 13 -62 -2 -62 -7 0 -22 -4 -32 -9 -13 -5 -17 -4
-13 3 4 6 1 15 -6 20 -17 12 -88 36 -93 31 -2 -3 15 -11 38 -18 55 -17 62 -24
44 -39 -11 -9 -24 -10 -42 -4 -29 10 -114 -6 -114 -20 0 -5 17 -6 38 -3 50 9
163 6 181 -3 19 -11 51 -2 51 14 0 7 -6 15 -14 18 -7 3 -16 23 -20 46 -3 22
-11 43 -16 46 -7 4 -7 -3 0 -20z m27 -93 c-9 -2 -24 2 -34 8 -15 9 -15 10 6 4
18 -5 22 -3 15 7 -6 10 -3 10 11 -1 16 -13 16 -15 2 -18z"/>
<path d="M1170 2955 c-19 -13 -42 -24 -51 -24 -9 -1 -26 -15 -39 -31 -16 -21
-29 -29 -42 -24 -12 4 -18 0 -18 -11 0 -9 -13 -29 -28 -43 -41 -39 -49 -79
-21 -108 18 -19 26 -21 42 -13 10 6 30 9 43 6 20 -4 22 -1 17 23 -3 15 -1 30
5 34 5 3 56 6 113 7 57 1 110 5 119 10 8 4 23 10 33 13 26 8 21 23 -19 50 -36
24 -49 42 -78 104 -18 38 -29 39 -76 7z"/>
<path d="M3211 2954 c0 -11 3 -14 6 -6 3 7 2 16 -1 19 -3 4 -6 -2 -5 -13z"/>
<path d="M3310 2950 c0 -5 5 -10 11 -10 5 0 7 5 4 10 -3 6 -8 10 -11 10 -2 0
-4 -4 -4 -10z"/>
<path d="M1538 2933 c7 -3 16 -2 19 1 4 3 -2 6 -13 5 -11 0 -14 -3 -6 -6z"/>
<path d="M3393 2933 c9 -2 25 -2 35 0 9 3 1 5 -18 5 -19 0 -27 -2 -17 -5z"/>
<path d="M3202 2910 c0 -14 2 -19 5 -12 2 6 2 18 0 25 -3 6 -5 1 -5 -13z"/>
<path d="M3235 2894 c-3 -20 -4 -38 -2 -40 3 -3 8 11 11 31 7 34 10 36 34 31
20 -5 23 -4 12 4 -30 20 -48 11 -55 -26z"/>
<path d="M3525 2892 c22 -23 41 -42 43 -42 8 0 -41 55 -61 69 -12 8 -4 -4 18
-27z"/>
<path d="M1978 2885 c5 -11 12 -27 15 -35 5 -13 6 -13 6 1 1 8 -6 24 -15 35
-15 19 -15 19 -6 -1z"/>
<path d="M3161 2839 c-17 -23 -31 -47 -31 -53 0 -6 -9 -19 -19 -28 -17 -14
-21 -15 -32 -2 -6 8 -16 14 -21 14 -6 0 0 -8 13 -19 22 -17 25 -18 45 -2 12 9
25 27 27 41 3 14 17 38 32 54 14 15 24 30 21 33 -2 3 -18 -14 -35 -38z"/>
<path d="M375 2830 l-30 -7 28 -7 c15 -5 27 -14 27 -21 0 -8 5 -17 12 -21 8
-5 9 -2 5 9 -3 9 -3 16 1 15 15 -4 50 13 56 27 4 12 -3 15 -32 14 -20 -1 -50
-5 -67 -9z"/>
<path d="M499 2834 c-1 -5 -1 -17 0 -26 2 -12 -5 -18 -16 -18 -11 0 -28 -7
-39 -15 -18 -14 -17 -16 29 -61 l48 -47 22 22 c33 30 80 28 106 -5 12 -15 21
-33 21 -40 0 -7 12 -14 27 -16 21 -2 29 -10 36 -34 8 -29 11 -30 33 -20 14 6
22 17 19 25 -3 7 -1 19 5 26 12 14 -4 115 -21 125 -5 4 -9 11 -8 16 0 5 -2 19
-6 32 -7 20 -12 22 -44 15 -46 -9 -90 -7 -105 6 -7 6 -21 10 -31 10 -11 0 -32
3 -47 7 -16 3 -29 2 -29 -2z"/>
<path d="M3177 2803 c-8 -21 -18 -46 -21 -56 -3 -10 -10 -16 -15 -13 -9 6 -21
-40 -21 -84 0 -29 -14 -45 -42 -51 -15 -3 -13 -6 6 -15 21 -10 24 -9 19 5 -7
17 -5 16 17 -13 10 -13 10 -17 3 -12 -26 15 -12 -14 17 -36 17 -12 30 -30 30
-41 0 -10 9 -21 20 -24 11 -3 20 -13 20 -22 0 -14 2 -14 10 -1 5 8 10 11 10 6
0 -5 7 -3 15 4 11 9 15 9 15 1 0 -30 17 2 18 35 1 20 4 45 7 55 4 13 1 19 -9
19 -10 0 -13 6 -10 15 7 18 30 20 37 3 3 -8 6 -6 6 5 1 9 -4 17 -10 17 -6 0
-8 9 -4 21 7 20 4 21 -25 17 l-31 -5 25 24 c30 28 33 28 39 6 4 -14 5 -13 6 4
1 16 -11 29 -41 47 -24 14 -44 21 -46 16 -2 -6 -8 -10 -13 -10 -5 0 0 13 12
29 20 27 20 31 6 51 l-15 21 -16 -23 c-9 -12 -16 -17 -16 -10 0 6 9 21 20 32
14 14 16 20 7 20 -8 0 -21 -17 -30 -37z m-3 -119 c9 -3 16 -10 16 -15 0 -6 -9
-5 -20 1 -11 6 -26 8 -32 4 -7 -4 -8 -3 -4 4 8 13 17 15 40 6z m76 -14 c0 -5
-5 -10 -11 -10 -5 0 -7 5 -4 10 3 6 8 10 11 10 2 0 4 -4 4 -10z m-45 -199 c-6
-5 -25 10 -25 20 0 5 6 4 14 -3 8 -7 12 -15 11 -17z"/>
<path d="M1375 2798 c-6 -14 -21 -24 -38 -26 -32 -4 -57 -39 -33 -48 22 -8 36
-67 36 -146 0 -61 2 -68 19 -68 18 0 20 7 18 80 -1 43 3 83 8 87 4 4 5 2 1 -4
-4 -7 -3 -13 2 -13 6 0 13 7 16 16 8 22 8 26 -4 19 -6 -3 -7 1 -3 10 4 13 8
14 14 4 14 -23 28 32 16 61 -23 54 -37 62 -52 28z m32 -24 c-2 -13 0 -21 4
-18 5 3 9 0 9 -5 0 -6 -7 -11 -15 -11 -8 0 -15 -4 -15 -9 0 -5 -6 -11 -14 -14
-10 -4 -12 0 -9 14 4 15 2 18 -11 13 -9 -3 -16 -2 -16 3 0 10 42 38 52 35 4
-1 4 6 1 15 -5 11 -3 14 6 8 7 -4 11 -18 8 -31z m-84 -29 c-3 -9 -8 -14 -10
-11 -3 3 -2 9 2 15 9 16 15 13 8 -4z m36 -159 c1 -97 -5 -79 -11 29 -3 50 -2
79 2 65 5 -14 8 -56 9 -94z"/>
<path d="M3398 2790 c2 -17 8 -28 12 -25 9 6 2 43 -9 50 -4 2 -5 -9 -3 -25z"/>
<path d="M1447 2794 c-3 -3 -1 -17 5 -30 10 -20 7 -33 -13 -74 -13 -27 -27
-50 -31 -50 -5 0 -8 -28 -8 -63 l0 -64 29 5 c44 6 86 -22 111 -73 18 -38 26
-45 51 -45 16 0 29 4 29 10 0 5 13 7 30 4 36 -8 60 9 60 41 0 13 11 32 25 43
14 11 25 23 25 27 0 4 -7 2 -15 -5 -12 -10 -18 -10 -30 0 -9 7 -14 19 -11 27
3 7 -7 19 -24 28 -30 16 -42 32 -16 22 8 -3 16 2 19 14 3 13 14 19 31 19 32 0
32 3 4 33 -13 13 -28 32 -35 43 -12 19 -12 19 -6 -1 3 -11 11 -26 16 -33 5 -7
7 -15 3 -19 -3 -3 -6 -1 -6 6 0 8 -7 11 -15 7 -10 -4 -14 1 -12 17 3 30 -27
29 -31 0 -2 -16 4 -26 22 -35 30 -13 33 -23 10 -32 -23 -9 -28 -7 -16 7 8 9 4
12 -17 11 -15 0 -32 -3 -37 -7 -6 -3 -19 -4 -30 -2 -10 2 -29 4 -40 4 -14 1
-26 11 -34 31 -13 31 -19 35 -36 23 -5 -5 -2 -1 6 7 12 12 14 23 7 50 -4 19
-8 41 -9 48 -1 14 -2 14 -11 6z m11 -145 c-19 -13 -28 -11 -28 5 0 9 7 12 21
9 16 -4 17 -8 7 -14z m-34 -101 c-2 -3 4 -9 13 -11 14 -4 13 -5 -4 -6 -21 -1
-23 3 -22 52 l1 52 8 -40 c4 -22 6 -43 4 -47z m56 56 c-8 -8 -23 -20 -34 -25
-13 -6 -10 0 9 15 34 29 43 33 25 10z m220 -98 c0 -18 -26 -40 -34 -27 -9 14
4 41 20 41 8 0 14 -6 14 -14z m-85 -16 c3 -5 1 -10 -4 -10 -6 0 -11 5 -11 10
0 6 2 10 4 10 3 0 8 -4 11 -10z"/>
<path d="M2043 2786 c-4 -7 -18 -18 -30 -25 -13 -6 -23 -16 -23 -21 0 -17 -50
-120 -58 -120 -5 0 -14 -17 -21 -37 -27 -73 -61 -105 -74 -69 -13 34 -80 -7
-103 -62 -15 -36 -5 -72 19 -72 15 0 39 -53 35 -77 -3 -16 9 -17 127 -19 72
-2 145 -7 163 -13 30 -9 32 -8 32 13 0 13 -9 31 -21 42 -26 24 -57 89 -61 129
-1 18 8 47 24 73 14 24 24 52 21 62 -3 10 -22 35 -44 56 -43 42 -39 64 13 64
26 0 28 2 18 21 -7 11 -9 32 -6 45 7 26 1 32 -11 10z"/>
<path d="M3996 2791 c-8 -13 -80 -29 -146 -32 -14 -1 -31 -6 -38 -12 -7 -6
-30 -12 -50 -13 -20 -2 -52 -6 -70 -10 -28 -5 -38 -2 -62 21 -28 27 -28 27
-39 6 -10 -17 -6 -26 23 -58 27 -30 52 -44 118 -66 46 -15 96 -27 111 -27 15
0 27 -2 27 -4 0 -2 -39 -44 -86 -93 -78 -80 -89 -88 -124 -89 -22 0 -48 -8
-58 -17 -10 -9 -26 -17 -35 -17 -8 0 -29 -17 -46 -37 -30 -36 -31 -41 -31
-138 0 -128 9 -140 61 -75 39 49 143 140 161 140 15 0 118 101 150 149 17 23
46 73 65 110 19 36 45 84 58 106 13 22 24 52 25 68 0 15 4 27 8 27 5 0 8 16 8
35 -1 33 -17 47 -30 26z"/>
<path d="M1966 2769 c3 -5 0 -18 -6 -29 -6 -11 -8 -20 -6 -20 3 0 12 13 20 28
13 24 13 29 1 29 -8 0 -12 -4 -9 -8z"/>
<path d="M2507 2768 c-2 -7 6 -26 19 -41 18 -21 22 -35 17 -57 -4 -20 -2 -30
7 -30 7 0 10 7 6 16 -3 8 -2 12 4 9 5 -3 17 10 27 29 19 42 21 42 65 17 18
-11 61 -22 95 -26 58 -6 65 -5 94 19 35 30 35 30 79 14 32 -11 35 -9 59 19 14
17 35 33 46 36 19 4 19 5 -2 6 -13 1 -31 -11 -46 -30 -24 -30 -26 -31 -61 -19
-34 11 -40 10 -75 -14 -34 -24 -43 -26 -102 -19 -52 5 -59 8 -39 15 23 7 22 7
-5 4 -16 -3 -39 2 -49 10 -29 21 -42 17 -64 -17 -18 -29 -20 -30 -26 -12 -4
11 -15 28 -26 38 -10 9 -16 23 -13 31 3 8 3 14 0 14 -3 0 -7 -6 -10 -12z"/>
<path d="M1587 2763 c-4 -3 -7 -11 -7 -17 0 -6 5 -5 12 2 6 6 9 14 7 17 -3 3
-9 2 -12 -2z"/>
<path d="M1157 2752 c-68 -3 -68 -3 -63 -30 13 -72 17 -124 8 -135 -5 -7 -14
-26 -21 -44 -11 -27 -10 -37 5 -70 10 -21 22 -41 27 -44 9 -7 43 5 114 37 17
8 38 14 47 14 20 0 20 7 0 27 -10 10 -15 32 -14 62 1 25 1 48 0 51 -1 3 -4 23
-6 46 -2 22 -9 52 -16 65 -12 22 -18 24 -81 21z"/>
<path d="M1720 2750 c-9 -6 -10 -10 -3 -10 6 0 15 5 18 10 8 12 4 12 -15 0z"/>
<path d="M1255 2740 c3 -5 8 -10 11 -10 2 0 4 5 4 10 0 6 -5 10 -11 10 -5 0
-7 -4 -4 -10z"/>
<path d="M2408 2695 c-42 -42 -62 -55 -85 -55 -22 0 -33 -7 -41 -25 -6 -13
-23 -27 -37 -30 -14 -3 -37 -8 -52 -12 -16 -3 -39 -8 -53 -10 -14 -1 -31 -3
-39 -5 -22 -2 -56 -69 -53 -103 4 -41 37 -111 59 -123 12 -7 21 -5 33 10 12
16 27 20 64 20 36 -1 47 2 43 12 -7 19 40 66 65 66 12 0 29 -7 39 -16 10 -9
39 -20 65 -25 39 -7 49 -6 59 7 11 16 41 23 107 27 15 1 32 7 38 13 8 8 22 9
47 2 19 -5 37 -7 40 -4 4 3 -14 27 -39 54 -25 27 -50 58 -57 70 -6 12 -28 29
-49 39 -46 21 -52 30 -45 65 4 22 0 35 -17 53 -13 14 -26 25 -30 25 -4 0 -31
-25 -62 -55z"/>
<path d="M2987 2713 c-34 -34 -36 -35 -71 -22 -33 12 -38 11 -68 -11 -28 -21
-43 -24 -92 -21 -35 1 -76 11 -99 22 -21 11 -40 19 -42 17 -1 -2 -10 -17 -18
-34 -14 -26 -14 -34 -3 -43 7 -6 16 -7 20 -3 4 4 7 2 6 -3 -5 -24 15 -57 41
-71 16 -8 29 -21 29 -29 0 -8 11 -22 25 -31 14 -9 23 -20 20 -24 -2 -4 8 -19
23 -33 25 -24 31 -26 65 -16 34 9 40 8 65 -18 24 -23 36 -28 73 -26 95 6 108
9 131 31 16 14 37 22 61 22 20 0 37 4 37 9 0 5 -19 7 -42 3 -37 -5 -40 -4 -27
10 10 11 18 13 27 6 10 -8 10 -5 0 19 -20 45 -63 91 -93 99 -21 5 -25 11 -21
28 3 11 6 24 6 29 0 4 12 7 26 7 25 0 25 2 19 43 -13 78 -46 91 -98 40z m71 5
c5 -7 13 -28 17 -45 6 -28 4 -33 -12 -32 -10 0 -13 3 -5 6 6 2 12 9 12 14 0 6
-4 8 -8 5 -4 -2 -8 7 -7 22 0 17 -6 28 -17 30 -14 3 -15 -2 -8 -32 9 -39 2
-50 -20 -35 -8 5 -28 9 -45 9 -16 0 -37 5 -45 10 -11 8 -8 9 12 4 21 -5 32 0
54 25 29 33 55 39 72 19z m-398 -54 c0 -2 -9 0 -20 6 -11 6 -20 13 -20 16 0 2
9 0 20 -6 11 -6 20 -13 20 -16z m240 22 c0 -2 -9 -6 -20 -9 -11 -3 -18 -1 -14
4 5 9 34 13 34 5z m-32 -29 c14 6 15 4 4 -9 -7 -9 -21 -14 -33 -11 -16 5 -17
8 -7 20 7 9 14 11 16 5 2 -6 11 -8 20 -5z m-89 -13 c17 -4 28 -10 25 -15 -3
-5 2 -9 10 -9 9 0 16 -5 16 -12 0 -6 -3 -8 -7 -5 -3 4 -12 2 -19 -4 -18 -14
-45 -4 -38 14 3 10 -8 17 -38 24 -40 10 -40 11 -12 12 17 0 45 -2 63 -5z m241
-47 c0 -18 -2 -19 -10 -7 -13 20 -13 43 0 35 6 -3 10 -16 10 -28z m-170 -11
c0 -3 -4 -8 -10 -11 -5 -3 -10 -1 -10 4 0 6 5 11 10 11 6 0 10 -2 10 -4z m227
-42 c-3 -3 -12 -4 -19 -1 -8 3 -5 6 6 6 11 1 17 -2 13 -5z m53 -64 c0 -10 -7
-23 -15 -30 -8 -7 -13 -16 -10 -20 2 -4 -4 -15 -15 -25 -11 -10 -20 -13 -20
-7 0 6 8 16 18 21 11 7 13 10 3 11 -10 0 -11 3 -2 14 7 8 8 17 3 20 -13 8 -52
-23 -52 -42 0 -13 -3 -11 -16 6 -18 26 -12 52 11 52 8 0 15 4 15 8 0 12 43 12
57 0 9 -7 13 -7 13 1 0 6 -4 11 -9 11 -5 0 -12 8 -15 17 -6 15 -4 15 14 -2 11
-10 20 -26 20 -35z m-73 -86 c-3 -3 -12 -4 -19 -1 -8 3 -5 6 6 6 11 1 17 -2
13 -5z"/>
<path d="M1735 2730 c-3 -5 -1 -10 4 -10 6 0 11 5 11 10 0 6 -2 10 -4 10 -3 0
-8 -4 -11 -10z"/>
<path d="M880 2721 c0 -9 -9 -12 -30 -9 -37 6 -59 -14 -40 -37 6 -8 9 -19 6
-24 -4 -5 -2 -12 3 -15 5 -4 1 -23 -10 -46 -26 -53 -24 -74 7 -95 21 -14 25
-23 22 -51 -5 -39 -1 -40 50 -18 22 10 68 17 115 18 42 0 77 1 77 2 0 1 -7 18
-15 37 -14 33 -13 40 6 84 17 41 19 54 9 86 -9 29 -16 37 -35 37 -13 0 -27 -4
-30 -10 -10 -16 -22 -12 -51 15 -18 17 -34 23 -47 19 -11 -4 -23 -1 -28 7 -7
12 -9 12 -9 0z"/>
<path d="M1583 2710 c-11 -16 -10 -18 2 -14 8 4 15 10 15 16 0 5 5 6 12 2 7
-4 8 -3 4 4 -10 17 -19 15 -33 -8z"/>
<path d="M1276 2680 c4 -25 8 -70 9 -100 0 -53 8 -80 23 -80 4 0 9 31 10 70 4
76 -7 112 -20 70 -5 -16 -5 -11 -2 16 4 30 1 44 -12 55 -15 12 -16 10 -8 -31z
m25 -143 c-10 -9 -11 -8 -5 6 3 10 9 15 12 12 3 -3 0 -11 -7 -18z"/>
<path d="M1941 2694 c0 -11 3 -14 6 -6 3 7 2 16 -1 19 -3 4 -6 -2 -5 -13z"/>
<path d="M543 2658 l-22 -31 21 -29 c11 -16 31 -34 44 -40 48 -22 84 46 57
105 -20 40 -70 38 -100 -5z"/>
<path d="M1508 2683 c7 -3 16 -2 19 1 4 3 -2 6 -13 5 -11 0 -14 -3 -6 -6z"/>
<path d="M1520 2660 c0 -5 7 -10 15 -10 8 0 15 5 15 10 0 6 -7 10 -15 10 -8 0
-15 -4 -15 -10z"/>
<path d="M1907 2644 c-10 -13 -22 -22 -27 -19 -5 3 -25 -4 -44 -16 -20 -12
-43 -19 -51 -16 -9 4 -12 1 -8 -9 3 -7 10 -14 16 -14 6 0 2 -6 -8 -14 -17 -12
-16 -13 18 -10 28 3 39 0 43 -11 5 -13 11 -9 25 15 11 17 19 37 19 45 0 8 9
24 21 36 11 11 19 24 17 29 -2 4 -11 -3 -21 -16z"/>
<path d="M680 2602 c0 -5 -14 -23 -31 -40 -30 -29 -30 -31 -11 -41 12 -6 41
-28 65 -49 41 -36 103 -70 111 -61 2 2 7 14 10 26 5 17 -1 27 -29 48 -27 21
-33 31 -24 41 6 7 8 18 4 25 -6 8 -9 8 -15 0 -11 -19 -39 -1 -42 27 -3 25 -38
47 -38 24z"/>
<path d="M1737 2603 c-12 -12 -7 -22 8 -17 8 4 15 10 15 15 0 11 -14 12 -23 2z"/>
<path d="M3405 2540 c-4 -7 -19 -10 -36 -6 -19 4 -29 1 -29 -7 0 -7 -12 -25
-27 -41 -25 -28 -26 -29 -5 -24 12 4 22 3 22 -2 0 -4 11 -10 24 -12 21 -4 24
-2 20 21 -3 17 -1 21 4 13 7 -10 11 -10 22 3 16 20 32 19 28 -1 -2 -9 7 -20
20 -25 13 -5 22 -5 22 1 0 6 -7 10 -15 10 -9 0 -12 6 -9 15 4 8 1 15 -5 15
-19 0 -12 16 12 29 l22 11 -24 -6 c-14 -4 -27 -1 -31 6 -6 9 -9 9 -15 0z"/>
<path d="M3714 2468 l-19 -23 23 19 c21 18 27 26 19 26 -2 0 -12 -10 -23 -22z"/>
<path d="M3294 2436 c-3 -9 -9 -14 -13 -12 -3 3 -22 1 -41 -4 l-35 -8 30 -1
c17 -1 41 -10 55 -21 14 -11 29 -20 34 -20 4 0 -2 8 -15 19 -20 16 -22 21 -10
35 8 9 11 19 8 23 -4 3 -9 -2 -13 -11z"/>
<path d="M2628 2429 c-3 -8 -37 -15 -108 -22 -14 -1 -32 -10 -40 -19 -13 -14
-23 -15 -72 -6 -32 5 -58 14 -58 19 0 5 -10 14 -22 18 -31 12 -66 -20 -62 -56
1 -15 -3 -38 -11 -53 -7 -14 -19 -63 -25 -108 -10 -69 -17 -86 -38 -103 -37
-29 -62 -74 -62 -114 0 -28 -8 -40 -45 -71 -37 -30 -48 -34 -60 -24 -9 7 -22
9 -32 4 -10 -4 -27 -8 -38 -8 -13 -1 -21 -9 -23 -23 -3 -22 -1 -22 109 -25
l113 -3 9 -34 c16 -62 35 -81 82 -81 40 0 44 2 50 30 6 26 11 30 39 30 18 0
36 -3 40 -7 4 -4 19 -9 34 -11 15 -2 28 -5 30 -7 2 -2 4 -30 4 -62 0 -32 7
-71 15 -86 8 -16 12 -36 9 -44 -5 -13 2 -14 43 -8 27 4 57 2 67 -3 11 -5 33
-17 51 -26 34 -18 79 -21 88 -7 5 10 25 -5 88 -65 35 -33 57 -34 57 -2 0 14
-5 18 -19 13 -28 -8 -64 41 -56 75 13 48 14 84 5 95 -7 9 -5 16 5 25 8 7 15
18 15 25 0 8 20 16 50 20 47 6 49 8 39 28 -6 12 -21 32 -32 44 -11 13 -22 38
-23 55 -9 112 -16 153 -25 164 -12 15 -2 59 17 75 8 6 14 26 14 44 0 48 24 97
61 124 28 21 30 26 17 35 -9 6 -15 23 -14 36 3 28 -51 93 -67 83 -25 -15 -69
-10 -95 12 -15 12 -32 20 -39 18 -6 -2 -28 0 -47 5 -20 6 -36 6 -38 1z"/>
<path d="M3430 2395 c-30 -17 -21 -20 14 -4 20 10 29 9 43 -2 16 -13 17 -12 4
4 -16 20 -28 21 -61 2z"/>
<path d="M3116 2392 c-3 -6 5 -32 19 -58 28 -52 32 -95 12 -116 -25 -25 -44
-63 -43 -88 1 -21 17 -33 96 -77 52 -28 100 -62 107 -74 12 -22 62 -68 76 -69
4 0 18 24 31 54 13 30 38 64 55 77 29 21 30 24 16 45 -11 17 -15 52 -15 126 0
87 3 105 19 122 20 21 20 21 -4 32 -19 10 -30 8 -57 -9 -42 -26 -89 -23 -139
9 -42 26 -161 44 -173 26z"/>
<path d="M3084 2360 c-5 -5 -40 -11 -77 -13 -64 -2 -67 -3 -67 -27 0 -15 5
-31 12 -38 9 -9 4 -20 -24 -50 -23 -23 -42 -55 -49 -84 -13 -49 -7 -70 13 -50
7 7 46 12 100 12 l88 0 0 28 c0 16 13 46 30 68 35 47 36 55 7 117 -15 33 -26
44 -33 37z m-127 -52 c-3 -8 -6 -5 -6 6 -1 11 2 17 5 13 3 -3 4 -12 1 -19z
m157 -4 c9 -24 2 -26 -12 -4 -7 11 -8 20 -3 20 5 0 12 -7 15 -16z m-181 -181
c-7 -2 -19 -2 -25 0 -7 3 -2 5 12 5 14 0 19 -2 13 -5z"/>
<path d="M3363 2363 c9 -2 23 -2 30 0 6 3 -1 5 -18 5 -16 0 -22 -2 -12 -5z"/>
<path d="M2150 2324 c0 -10 -5 -33 -12 -51 -10 -27 -17 -33 -33 -29 -49 14
-135 19 -135 7 0 -6 13 -11 29 -11 38 0 51 -32 25 -61 -16 -18 -16 -20 -1 -37
19 -21 22 -83 7 -113 -14 -24 -75 -27 -88 -3 -8 15 -10 15 -15 0 -4 -9 -13
-16 -21 -16 -12 0 -14 -7 -10 -29 5 -24 3 -30 -14 -33 -20 -3 -20 -3 -1 -27
15 -18 22 -21 33 -12 21 18 126 23 126 6 0 -8 14 -1 35 18 26 23 35 39 35 63
0 36 36 100 61 109 15 5 30 42 34 85 5 40 19 98 31 121 l13 25 -50 3 c-41 2
-49 -1 -49 -15z m-85 -264 c-3 -5 3 -10 14 -10 12 0 21 -5 21 -12 0 -6 -3 -9
-6 -5 -3 3 -17 2 -30 -3 -13 -5 -24 -7 -24 -4 0 9 20 44 26 44 3 0 2 -4 -1
-10z m-12 -57 c-20 -7 -15 -23 7 -23 10 0 24 8 29 18 9 14 10 13 9 -11 -2 -17
-7 -26 -15 -23 -7 3 -15 1 -18 -4 -3 -4 0 -10 7 -12 7 -3 4 -7 -7 -12 -11 -4
-16 -4 -12 0 3 4 -2 19 -13 34 -25 36 -25 40 3 39 12 0 16 -3 10 -6z m-117
-71 c-9 -8 -26 10 -26 26 1 15 2 15 15 -2 8 -11 13 -21 11 -24z"/>
<path d="M1870 2235 l0 -35 -47 0 -48 0 -16 -52 c-15 -47 -15 -53 0 -81 26
-50 81 -106 98 -100 8 3 13 14 10 24 -6 22 16 55 30 46 6 -4 13 0 17 8 6 18
33 20 38 3 2 -6 16 -12 30 -12 19 -1 28 4 32 19 10 36 6 66 -9 71 -19 8 -19
48 0 64 18 15 10 32 -13 29 -34 -3 -42 2 -42 24 0 20 -6 23 -40 25 -40 3 -40
2 -40 -33z m137 -167 c-3 -8 -6 -5 -6 6 -1 11 2 17 5 13 3 -3 4 -12 1 -19z"/>
<path d="M1772 2240 c-11 -19 -10 -20 33 -20 38 0 45 3 45 20 0 16 -7 20 -33
20 -21 0 -36 -7 -45 -20z"/>
<path d="M2928 2060 c2 -17 -1 -37 -8 -45 -9 -10 -9 -15 -1 -15 22 0 11 -27
-28 -69 -34 -37 -38 -46 -30 -68 5 -13 7 -29 3 -34 -3 -5 5 -22 19 -38 13 -16
29 -43 37 -60 9 -23 28 -39 74 -61 33 -17 73 -30 88 -30 32 0 58 -32 58 -72 0
-15 3 -29 8 -32 17 -11 152 -17 152 -6 0 5 11 10 24 10 27 0 85 18 103 33 10
7 8 13 -5 26 -25 22 -41 78 -38 130 2 30 -3 50 -17 68 -16 20 -18 29 -8 49 18
40 13 52 -29 80 -22 15 -40 34 -40 43 -1 10 -37 36 -96 69 -94 52 -95 52 -183
52 l-88 0 5 -30z"/>
<path d="M2850 2045 c-4 -11 -5 -24 -1 -30 3 -5 7 -1 9 11 2 16 8 20 28 16 17
-3 24 0 24 12 0 24 -50 17 -60 -9z"/>
<path d="M2880 2001 c0 -6 -7 -11 -15 -11 -10 0 -15 -10 -15 -29 0 -38 16 -48
31 -19 7 13 17 26 22 30 6 4 4 12 -6 23 -10 9 -17 12 -17 6z"/>
<path d="M1965 1910 c3 -5 8 -10 11 -10 2 0 4 5 4 10 0 6 -5 10 -11 10 -5 0
-7 -4 -4 -10z"/>
<path d="M1938 1814 c-4 -3 5 -31 18 -61 17 -38 23 -65 19 -84 -8 -35 2 -72
17 -63 6 4 8 2 4 -4 -3 -6 -1 -22 5 -36 10 -20 9 -35 -1 -68 -8 -24 -14 -45
-15 -48 0 -3 -8 -18 -16 -35 -8 -16 -14 -39 -14 -50 0 -11 -3 -23 -7 -26 -5
-3 0 -17 11 -31 16 -19 17 -28 8 -37 -16 -16 10 -33 41 -26 17 4 22 1 22 -15
0 -24 -22 -26 -40 -5 -16 19 -39 19 -64 0 -24 -18 -14 -20 13 -3 15 9 24 8 44
-5 20 -13 54 -16 161 -18 75 0 134 -5 131 -9 -7 -12 155 -22 189 -13 27 8 27
10 10 23 -14 12 -16 12 -9 1 5 -10 4 -12 -4 -7 -6 4 -9 11 -6 16 3 4 -2 13
-10 20 -12 10 -15 37 -15 116 l0 104 55 0 55 0 0 44 0 44 -47 -1 c-47 -2 -48
-2 -48 29 -1 18 -7 39 -14 47 -7 9 -12 29 -11 44 5 76 2 83 -35 83 -19 0 -35
5 -35 10 0 23 -29 8 -39 -20 -9 -28 -13 -30 -65 -30 -45 0 -57 4 -66 20 -6 11
-16 19 -23 17 -7 -1 -11 4 -9 12 2 8 0 27 -3 42 l-7 29 -97 0 c-54 0 -100 -3
-103 -6z m22 -14 c0 -5 -2 -10 -4 -10 -3 0 -8 5 -11 10 -3 6 -1 10 4 10 6 0
11 -4 11 -10z m47 4 c-3 -3 -12 -4 -19 -1 -8 3 -5 6 6 6 11 1 17 -2 13 -5z
m93 -364 c0 -5 -5 -10 -11 -10 -5 0 -7 5 -4 10 3 6 8 10 11 10 2 0 4 -4 4 -10z
m-30 -44 c0 -2 -11 -11 -25 -20 -14 -9 -25 -12 -25 -6 0 6 10 15 23 20 27 11
27 11 27 6z m-60 -65 c0 -5 -6 -14 -14 -20 -11 -9 -16 -9 -21 0 -4 6 -1 15 6
20 18 11 29 11 29 0z m102 -105 c7 4 8 3 4 -4 -8 -14 -66 -16 -66 -4 0 17 13
21 32 11 10 -5 24 -7 30 -3z"/>
<path d="M2832 1675 c-17 -13 -21 -25 -20 -58 1 -23 -2 -55 -7 -70 -10 -37 17
-69 51 -61 22 6 24 3 24 -35 0 -38 -2 -41 -28 -41 -19 0 -38 10 -55 30 -15 17
-33 30 -41 30 -8 0 -16 6 -18 12 -3 8 -20 11 -44 10 -28 -2 -47 3 -64 16 -13
11 -33 17 -47 14 -20 -4 -23 -10 -23 -48 l0 -44 -55 0 -55 0 0 -88 c0 -86 1
-89 33 -120 27 -26 41 -32 78 -32 25 0 49 -4 54 -9 6 -5 29 -11 52 -15 38 -6
44 -3 70 28 15 18 38 39 51 45 12 6 22 18 22 25 0 14 41 36 66 36 8 0 14 7 12
16 -2 12 15 22 67 40 39 13 71 24 72 24 2 0 3 18 4 57 0 13 4 25 10 28 5 4 9
25 9 49 0 23 5 47 11 53 19 19 -18 59 -87 92 -72 35 -109 39 -142 16z"/>
<path d="M3070 1612 c0 -4 5 -13 12 -20 9 -9 9 -15 0 -24 -7 -7 -12 -33 -12
-59 0 -26 -4 -50 -9 -53 -5 -3 -11 -17 -13 -30 -6 -28 33 -73 52 -61 24 15 42
-17 35 -66 -8 -55 5 -69 35 -39 32 32 27 83 -13 123 -36 36 -51 84 -38 120 5
12 6 42 2 66 -5 36 -10 45 -28 47 -13 2 -23 0 -23 -4z"/>
<path d="M3417 1545 c-11 -7 -38 -17 -60 -20 -23 -4 -47 -12 -54 -17 -6 -5
-46 -8 -87 -5 -83 5 -90 0 -79 -53 5 -27 13 -35 35 -31 4 0 5 -5 2 -12 -2 -7
4 -22 16 -32 25 -23 29 -109 5 -119 -9 -3 -15 -18 -15 -36 0 -20 -5 -30 -15
-30 -8 0 -15 5 -15 11 0 6 -11 24 -25 40 -20 25 -23 34 -14 56 13 34 5 53 -19
47 -10 -3 -24 1 -30 9 -18 21 -146 -23 -150 -52 -2 -15 2 -21 16 -21 10 0 43
-10 73 -22 l54 -23 -1 -73 c-1 -40 -4 -75 -7 -79 -4 -3 -2 -12 3 -18 13 -16
-30 -112 -64 -144 l-24 -22 19 -62 c10 -34 19 -84 19 -110 l0 -49 25 31 c15
17 46 37 75 46 27 9 53 21 56 27 12 19 15 99 4 136 -5 20 -9 41 -9 45 0 4 -6
19 -15 32 -19 29 -12 52 28 85 17 13 49 42 71 63 22 22 66 52 98 68 97 47 135
103 117 170 -6 22 -9 43 -7 47 3 4 2 35 -2 69 -6 58 -7 61 -24 48z m-337 -680
c0 -16 -35 -21 -44 -6 -4 5 -3 16 0 25 5 12 10 13 25 5 10 -5 19 -16 19 -24z
m80 -59 c0 -2 -8 -10 -17 -17 -16 -13 -17 -12 -4 4 13 16 21 21 21 13z"/>
<path d="M1939 1404 c-5 -15 -8 -29 -5 -31 2 -2 8 10 14 26 13 38 5 41 -9 5z"/>
<path d="M2836 1264 c-9 -8 -16 -19 -16 -24 0 -5 -9 -11 -20 -15 -11 -3 -37
-24 -57 -45 -36 -37 -40 -39 -75 -31 l-37 9 22 -40 c12 -22 41 -54 64 -72 25
-18 42 -39 43 -51 0 -26 18 -45 41 -45 10 0 25 -7 33 -16 9 -8 40 -18 69 -21
51 -5 55 -4 74 23 35 52 63 113 53 119 -5 3 -7 20 -4 38 9 55 4 121 -11 133
-8 6 -33 16 -57 23 -24 7 -51 17 -60 22 -26 13 -44 11 -62 -7z"/>
<path d="M1918 1193 c-33 -5 -37 -29 -9 -64 10 -13 37 -61 59 -107 23 -46 51
-97 63 -113 16 -24 19 -38 14 -70 -4 -22 -2 -52 3 -67 5 -15 16 -61 23 -102
10 -55 20 -82 40 -105 27 -29 28 -29 42 -10 13 16 17 17 31 6 9 -7 16 -20 16
-27 0 -8 7 -14 15 -15 48 -3 62 -2 82 9 22 12 23 18 25 205 l3 192 27 3 27 3
3 110 3 109 -45 0 c-25 0 -58 7 -74 15 -21 11 -62 15 -152 15 -71 0 -125 4
-129 10 -6 10 -17 11 -67 3z"/>
<path d="M2520 1155 c8 -10 17 -12 24 -6 6 5 20 11 31 14 11 2 0 5 -24 6 -38
1 -42 -1 -31 -14z"/>
<path d="M2573 1140 c-13 -5 -23 -11 -23 -14 0 -2 10 -2 23 1 12 3 19 3 16 -1
-10 -10 -74 -13 -95 -4 -15 7 -14 8 5 4 16 -3 20 -1 14 5 -12 12 -93 1 -93
-13 0 -5 5 -6 11 -2 7 4 7 -1 -1 -16 -9 -16 -9 -29 0 -49 11 -27 50 -41 50
-18 1 7 5 6 13 -4 7 -8 20 -18 31 -22 15 -6 17 -4 12 17 -7 28 18 57 28 31 3
-9 0 -15 -11 -15 -13 0 -13 -3 -3 -15 10 -12 16 -13 26 -4 8 7 36 12 62 13 40
1 47 -2 44 -16 -2 -10 2 -24 8 -30 6 -7 17 -22 25 -33 14 -19 15 -18 9 10 l-7
30 24 -35 c13 -19 35 -37 49 -41 14 -4 19 -7 12 -8 -19 -1 -112 -82 -112 -97
0 -7 -10 -20 -22 -28 -12 -9 -18 -16 -12 -16 13 0 44 33 44 46 0 12 78 78 104
87 22 9 12 23 -19 29 -10 2 -26 17 -35 33 -8 17 -18 32 -22 33 -5 2 -8 10 -8
18 0 8 -6 14 -13 14 -16 0 -51 37 -60 63 -4 10 -11 16 -16 12 -5 -3 -13 0 -17
6 -4 8 -3 9 4 5 16 -9 15 7 0 22 -14 14 -15 14 -45 2z"/>
<path d="M2404 1025 c0 -60 1 -84 3 -52 2 32 2 81 0 110 -2 29 -3 3 -3 -58z"/>
<path d="M2696 917 c3 -10 9 -15 12 -12 3 3 0 11 -7 18 -10 9 -11 8 -5 -6z"/>
<path d="M2835 896 c6 -2 24 -7 40 -11 l30 -7 -35 -13 c-19 -8 -27 -14 -17
-14 12 -1 17 -9 17 -30 0 -25 -3 -28 -25 -23 -14 2 -28 8 -31 13 -10 16 -54
10 -61 -8 -9 -24 -34 -42 -50 -36 -7 3 -13 0 -13 -6 0 -6 -6 -11 -12 -11 -7
-1 -21 -17 -30 -38 l-17 -37 19 24 c11 13 20 19 20 15 0 -16 77 -46 99 -39 12
3 21 2 21 -4 0 -5 -16 -13 -35 -17 -19 -3 -35 -10 -36 -15 -4 -37 -1 -59 10
-73 7 -8 10 -20 6 -26 -3 -5 -1 -10 5 -10 6 0 8 -5 4 -12 -5 -7 -11 -5 -21 7
-12 18 -13 18 -13 -3 0 -13 -6 -22 -15 -22 -8 0 -16 -13 -19 -32 -7 -49 -4
-68 11 -68 7 0 13 -4 13 -9 0 -14 -28 -33 -40 -26 -13 8 -13 -11 1 -36 18 -34
5 -50 -30 -36 -16 6 -28 15 -25 19 3 4 -2 8 -10 8 -11 0 -13 -6 -9 -17 10 -26
45 -52 69 -53 12 0 25 -7 28 -16 5 -14 1 -16 -24 -11 -34 7 -63 -1 -54 -14 3
-5 -19 -10 -48 -10 -67 -2 -82 1 -86 12 -5 11 -53 12 -71 0 -20 -13 3 -23 36
-16 23 4 24 4 8 -4 -33 -16 -78 -12 -112 9 -18 11 -33 23 -34 27 -2 27 -9 47
-17 55 -12 12 -32 2 -32 -15 0 -8 3 -8 9 1 11 18 21 -7 21 -51 l0 -32 -21 33
c-27 42 -35 42 -12 -1 32 -57 82 -92 97 -68 4 5 -4 7 -16 4 -13 -3 -20 -3 -17
1 4 4 31 8 61 10 29 2 63 8 73 13 11 6 49 10 85 8 40 -2 78 2 99 11 18 8 42
14 53 14 21 0 66 28 111 68 30 28 38 53 10 31 -16 -13 -17 -12 -4 3 7 10 16
16 20 13 13 -7 68 51 91 96 13 24 40 63 61 86 22 24 39 51 39 62 0 11 3 26 6
35 3 9 1 16 -5 16 -6 0 -11 -7 -11 -15 0 -22 -46 -19 -70 5 -24 24 -25 32 -4
71 11 23 21 30 35 26 16 -4 19 0 19 26 0 49 -40 157 -59 157 -9 0 -34 2 -56 5
-22 3 -35 3 -30 1z m113 -66 c16 -53 15 -71 -4 -37 -8 15 -18 27 -23 27 -7 0
-8 36 -2 48 6 11 18 -5 29 -38z m-68 -69 c0 -10 -7 -21 -15 -25 -8 -3 -15 -1
-15 3 0 5 -3 16 -6 25 -4 12 0 16 15 16 14 0 21 -6 21 -19z m-47 -24 c3 -7 -1
-21 -9 -31 -12 -17 -13 -16 -9 10 4 35 4 34 9 34 2 0 6 -6 9 -13z m-136 -11
c0 -8 -6 -12 -14 -9 -7 3 -13 9 -13 14 0 5 6 9 13 9 8 0 14 -6 14 -14z m88
-16 c-3 -5 -11 -10 -16 -10 -6 0 -7 5 -4 10 3 6 11 10 16 10 6 0 7 -4 4 -10z
m-5 -170 c-18 -12 -30 -13 -30 -2 0 4 10 9 22 9 18 2 20 0 8 -7z m66 -89 c-9
-17 -23 -31 -30 -31 -7 0 -20 -10 -28 -21 -12 -19 -17 -20 -36 -10 -12 6 -30
29 -41 51 -18 38 -18 39 0 56 21 19 26 6 7 -16 -7 -8 3 -1 22 16 49 44 61 46
93 14 28 -27 29 -28 13 -59z m-116 -61 c0 -5 -5 -10 -11 -10 -5 0 -7 5 -4 10
3 6 8 10 11 10 2 0 4 -4 4 -10z"/>
<path d="M2760 481 l-30 -28 19 -24 c18 -22 20 -22 26 -6 4 9 15 17 25 17 23
0 36 36 20 55 -17 21 -26 19 -60 -14z"/>
<path d="M2759 847 c-31 -28 -62 -87 -38 -71 5 3 9 11 9 18 0 13 25 38 70 69
15 10 19 17 10 17 -8 -1 -31 -15 -51 -33z"/>
<path d="M2625 741 c-8 -25 -38 -27 -79 -6 -15 8 -33 15 -40 15 -23 -1 70 -39
95 -40 19 0 28 6 32 22 8 29 1 36 -8 9z"/>
<path d="M2568 677 c14 -6 26 -7 32 -1 5 5 -4 9 -23 10 -30 1 -30 1 -9 -9z"/>
<path d="M2942 665 c-9 -19 -8 -28 4 -40 21 -20 34 -10 34 25 0 36 -24 46 -38
15z"/>
<path d="M3010 656 c0 -9 5 -16 10 -16 6 0 10 4 10 9 0 6 -4 13 -10 16 -5 3
-10 -1 -10 -9z"/>
<path d="M2383 613 c9 -2 23 -2 30 0 6 3 -1 5 -18 5 -16 0 -22 -2 -12 -5z"/>
<path d="M2561 577 c-11 -29 -8 -47 9 -47 14 0 22 38 11 57 -9 16 -11 15 -20
-10z"/>
<path d="M2166 523 c-4 -9 -3 -20 1 -24 4 -4 9 3 9 17 2 28 -1 31 -10 7z"/>
<path d="M2530 526 c0 -9 5 -16 10 -16 6 0 10 4 10 9 0 6 -4 13 -10 16 -5 3
-10 -1 -10 -9z"/>
<path d="M2247 319 c4 -13 8 -18 11 -10 2 7 -1 18 -6 23 -8 8 -9 4 -5 -13z"/>
<path d="M2545 290 c-3 -5 1 -10 9 -10 9 0 16 5 16 10 0 6 -4 10 -9 10 -6 0
-13 -4 -16 -10z"/>
</g>
</svg>
